<svg xmlns="http://www.w3.org/2000/svg" viewBox="0 0 429.54 98.25"><defs><style>.cls-1{fill:#201e12;}.cls-2{fill:#fcd503;}</style></defs><g id="Calque_2" data-name="Calque 2"><g id="Calque_1-2" data-name="Calque 1"><path class="cls-1" d="M51.54,20.19c0,4.27-.07,8.09,0,11.91a6.15,6.15,0,0,1-2.12,5c-3.13,3-6.1,6.1-9.28,9-1.41,1.28-1.58,2.13-.39,3.73,3.49,4.67,6.75,9.51,10.14,14.26a8.43,8.43,0,0,1,1.66,5.23c-.09,7.45-.06,14.9,0,22.35,0,1.91-.18,3.68-2.34,4.23s-3.52-.37-4.7-2.16c-5.48-8.31-11-16.58-16.58-24.85a6,6,0,0,0-2.11-2.49c-.42,3.89-.52,7.27,3.08,10.07s3.24,5.26.16,8.41-6.29,6.4-9.49,9.56c-2.52,2.49-5.26,2.47-7.73,0q-4.93-5-9.81-10C-.39,81.88-.6,79.07,2.09,77c3.22-2.53,3.79-5.58,3.74-9.38C5.66,53.39,5.72,39.2,5.81,25A5.77,5.77,0,0,0,3.6,19.89a15.36,15.36,0,0,1-2.12-2.07,5.06,5.06,0,0,1,0-7.19c2.92-3,5.92-6,8.9-9A5.13,5.13,0,0,1,14.25,0C20.18.06,26.11.07,32,0a5.66,5.66,0,0,1,4.24,1.93c4,3.92,7.94,7.8,11.9,11.72.86.85,1.17,1.2,2.34-.12,3.73-4.23,7.77-8.2,11.87-12.09,1.89-1.8,4.5-1.46,6.52.5,2.77,2.69,5.51,5.4,8.16,8.22,1.08,1.15,1.71,1,2.74,0C82.34,7.46,85,4.89,87.62,2.31s5.18-2.65,7.92.06q5,4.92,9.87,9.93c2.26,2.32,2.51,5.3,0,7.28-3.47,2.74-3.94,6.06-3.88,10.13.19,14.54.07,29.08.07,43.63v3c2.41-1.74,3.81-3.34,3.77-6.41-.18-14.9,0-29.8-.12-44.71a7.18,7.18,0,0,1,2.42-5.64c5.69-5.48,11.27-11.08,16.9-16.63,3.7-3.64,5.7-3.63,9.5.06,2.38,2.31,4.78,4.61,7.09,7,1,1,1.64,1,2.61,0,2.55-2.65,5.19-5.23,7.82-7.8s5.12-2.69,7.9.07c5.42,5.37,10.79,10.8,16.24,16.14a6.76,6.76,0,0,1,2.14,5.26c-.06,15.08,0,30.16-.09,45.25,0,2.92.53,5.25,2.94,7A6.88,6.88,0,0,1,181.87,77c1.94,2.22,2,4.85-.05,7q-5.13,5.35-10.43,10.53c-2.33,2.29-4.9,2.23-7.33-.11-2.58-2.49-5.17-5-7.61-7.62-1.31-1.43-2.15-1.67-3.57-.07-2.2,2.48-4.67,4.72-7,7.06-3.37,3.33-5.44,3.31-8.86-.11-2.28-2.28-4.64-4.51-6.81-6.9-1.27-1.4-2.06-1.69-3.48-.07-2.31,2.62-4.92,5-7.41,7.44-2.74,2.7-5.24,2.7-8,.08-1.46-1.41-2.7-4-4.52-3.83-1.53.13-2.95,2.4-4.28,3.84a6.5,6.5,0,0,1-5.24,2.17c-6.29-.1-12.58-.09-18.86,0a6.18,6.18,0,0,1-4.76-2q-8.16-8.23-16.41-16.36a6.48,6.48,0,0,1-2.08-5c.06-15.62,0-31.24.11-46.86C55.33,23.31,53.82,22,51.54,20.19Zm96.93-.9.8-.57c3.27,3.41,6.47,6.89,9.84,10.21a5.35,5.35,0,0,1,1.79,4.21c-.07,11.75-.21,23.52,0,35.27.1,4.39-.37,8.12-4.3,10.72-1.23.81-1.24,1.67-.1,2.76q5,4.86,9.9,9.9c1.17,1.21,1.87.83,2.83-.18,2.73-2.85,5.55-5.63,8.33-8.43,2.62-2.65,2.76-2.81,0-5.19-2.41-2.07-3.13-4.38-3.1-7.5.15-15.17.06-30.34.08-45.51a4.79,4.79,0,0,0-1.28-3.9Q165,13,156.89,4.74c-1.1-1.12-1.78-1.06-2.82,0-3.19,3.28-6.55,6.41-9.68,9.74-1.41,1.51-2.29,1.69-3.8.09-3.13-3.33-6.56-6.39-9.73-9.69-1.27-1.31-2-1.18-3.22.06Q119,13.66,110.2,22.18a5.36,5.36,0,0,0-1.78,4.22c.07,14.1-.11,28.19.14,42.28.07,4.34-.58,7.91-4.3,10.48-1.25.86-1.22,1.64-.09,2.73,3.29,3.18,6.53,6.42,9.65,9.77,1.22,1.32,1.91,1,3-.09,3.06-3.16,6.15-6.3,9.38-9.29,1.51-1.39,1.59-2.33-.09-3.52-3.18-2.27-4.06-5.3-4-9.25.25-15.8.1-31.6.12-47.4a5,5,0,0,1,.47-3.2c3.25,3.22,6.3,6.45,9.6,9.41a7,7,0,0,1,2.42,5.86c-.12,11.49-.23,23,0,34.47.1,4.32-.5,7.93-4.29,10.47-1.47,1-1.12,1.82,0,2.92q4.84,4.68,9.49,9.56c1.13,1.19,1.86,1.26,3,0,2.72-2.86,5.57-5.6,8.37-8.38s2.66-2.65.08-5.38c-1.17-1.23-3-2-3-4.21Q148.51,46.47,148.47,19.29ZM84.12,77.64c-3.37-3.34-6.6-6.66-10-9.83a5.78,5.78,0,0,1-2-4.7c.08-11.67.21-23.35,0-35-.1-4.41.46-8.13,4.36-10.73,1.31-.86,1.11-1.7,0-2.75-3.29-3.19-6.54-6.42-9.68-9.75-1.22-1.29-1.92-1-3,.13-2.66,2.79-5.45,5.47-8.17,8.21s-2.91,3,0,5.54c2.21,2,2.89,4.11,2.86,7-.14,15.35-.05,30.71-.09,46.06a4.75,4.75,0,0,0,1.52,3.79q8.19,8,16.22,16.16a4.42,4.42,0,0,0,3.53,1.46c5.12-.08,10.24-.16,15.36,0a6.41,6.41,0,0,0,5.84-2.44c1.48-1.88,4.76-3.24,4.55-5.25s-2.9-3.66-4.72-5.23a6.56,6.56,0,0,1-2.35-5.61c.09-15.53.19-31.07,0-46.59-.07-4.4.39-8.14,4.28-10.75,1.51-1,1-1.85-.08-2.92C99.28,11.36,96.11,8.17,93,4.9c-1.18-1.25-1.89-1.12-3,0-3,3.18-6.12,6.33-9.36,9.3-1.56,1.44-1.5,2.43.11,3.55,3.27,2.28,4,5.37,4,9.28-.22,15.8-.08,31.6-.11,47.41C84.62,75.43,84.94,76.44,84.12,77.64ZM47.75,92l.6-.23c0-7.53,0-15.07,0-22.6a4.5,4.5,0,0,0-1.1-2.66c-2.89-4.11-5.83-8.19-8.63-12.36-1.53-2.28-4.57-4.38-4.2-6.9s3.59-4,5.52-6c2.74-2.83,6.59-5.17,8-8.54s.3-7.77.44-11.71a4.57,4.57,0,0,0-1.62-3.75A121.51,121.51,0,0,1,37,7.62C34,3.93,30.42,2.72,25.78,3.15c-3.91.37-8.28-.86-11.71.49-3.22,1.28-5.46,5-8.13,7.67a4.45,4.45,0,0,1-.59.56C3.14,13.44,3,15,5.33,16.59,8.28,18.66,9.1,21.45,9,25.11c-.23,14.53-.26,29.07,0,43.6.09,4.44-.54,8.08-4.38,10.67-1.21.81-1,1.56,0,2.52,3.25,3.22,6.47,6.47,9.61,9.81,1.14,1.22,1.87,1.17,3,0,2.89-3.06,5.83-6.1,8.93-9,1.71-1.57,1.87-2.55,0-4.16-1.42-1.23-3.57-2.26-3.64-4.42-.18-4.93-.07-9.87-.05-14.8a2,2,0,0,1,1.44-2.05c.9-.25,1.06.8,1.43,1.34,4.26,6.32,8.48,12.66,12.73,19ZM81,69.21a3.62,3.62,0,0,0,.32-2.43c0-13.63,0-27.27.07-40.9a5.19,5.19,0,0,0-2.92-5c-1-.54-3,2.83-3,5,0,10.94.35,21.9-.15,32.82C75.07,63.83,77.54,66.54,81,69.21Zm45-42.62a9.73,9.73,0,0,0-.54,1.53q0,21.65,0,43.29a4.31,4.31,0,0,0,0,1.08,5.08,5.08,0,0,0,2.77,3.12c.87.41,1.56-1.16,2.37-1.8s.75-1.75.75-2.73V34.51a3.25,3.25,0,0,0-.6-2.53C129.27,30.36,127.83,28.66,126,26.59Zm26,0a15.3,15.3,0,0,0-.3,1.61q0,21.65,0,43.3a5.47,5.47,0,0,0,0,1.07c.32,1.48,2.73,3.44,3.5,2.8,1.26-1.07,2.52-2,2.51-4.13-.11-12.28-.06-24.56-.05-36.84a3.24,3.24,0,0,0-.89-2.66C155.23,30.24,153.84,28.6,152,26.57Z"/><path class="cls-1" d="M343.92,21.88c-.6,4.55-.33,7.88,3.13,11C354.3,39.44,361,46.62,368,53.43a8.28,8.28,0,0,1,2.89,6.83c-.22,4.57-.12,9.15,0,13.73a6.15,6.15,0,0,1-1.95,4.77c-5.26,5.15-10.46,10.35-15.71,15.51-2.54,2.5-5.25,2.55-7.75.08q-9-8.89-17.9-17.88c-2.66-2.7-2.62-5.23,0-7.94q3.58-3.66,7.22-7.25,3.82-3.78,7.72.1c1.85,1.83,3.6,3.76,5.51,5.53.86.8,1.5,2.74,3.34.87s-.18-2.35-.91-3.09q-11.42-11.61-23-23.08a7.1,7.1,0,0,1-2.4-5.68c.14-3.76.11-7.54,0-11.31a6.39,6.39,0,0,1,2-5c5.83-5.83,11.6-11.74,17.42-17.6,2.5-2.52,5-2.55,7.48-.1q8.25,8.12,16.45,16.29c3.11,3.1,3.12,5.39.08,8.47-1.95,2-3.91,4-5.91,5.89-2.9,2.82-5.4,2.81-8.32-.1C350.9,29.05,347.57,25.6,343.92,21.88Zm4.87-18.82c-2.49,2.43-4.5,4.35-6.48,6.31s-3.83,4.35-6.1,6.07c-6.48,4.89-9.41,11.06-8,19.22.27,1.65.46,3,1.74,4.25q11,10.88,21.85,22c1.86,1.89,5.32,3.54,5,5.84-.26,2.14-3.43,3.87-5.16,5.91-1.24,1.46-2,1.14-3.19-.09-2.64-2.82-5.5-5.43-8.12-8.26-1.25-1.35-2.06-1.56-3.38-.09a73.17,73.17,0,0,1-6.45,6.49c-1.7,1.48-1.34,2.4.08,3.79q8.67,8.46,17.15,17.13c1.33,1.37,2,1.08,3.21-.1q7.57-7.65,15.3-15.17a4.4,4.4,0,0,0,1.5-3.53c-.08-4.12-.08-8.26,0-12.38a4.4,4.4,0,0,0-1.46-3.53c-6-5.91-12-11.87-18-17.83-2.6-2.6-6.17-4.84-7.44-8s-.43-7.42-.38-11.19c0-1.87-.41-3.82.39-5.9.77.73,1.36,1.26,1.92,1.82,4.7,4.71,9.42,9.38,14.06,14.14,1.16,1.2,1.94,1.51,3.2.11,2-2.2,4.15-4.24,6.28-6.29.84-.81,1.16-1.41.17-2.41C360.55,15.25,354.64,9.11,348.79,3.06Z"/><path class="cls-1" d="M247.12,27.47c0,4.11,0,7.83,0,11.56,0,1.64,1.3,1.17,2.18,1.18q9.3,0,18.59,0c1.76,0,3.5,0,4.24,2a4.41,4.41,0,0,1-1.31,4.88c-3.71,3.78-7.47,7.51-11.14,11.33-1.48,1.53-3.27,1.53-5.17,1.59-2.39.07-5.45-1.07-7,.51s-.18,4.46-.45,6.76c-.45,3.9.45,7,3.7,9.65,2.7,2.2,2.46,4.94,0,7.47q-5,5.1-10.08,10.11c-2.47,2.42-5.07,2.39-7.54-.06q-5.07-5-10.05-10.14c-2.43-2.48-2.6-5.22.11-7.43,3-2.47,3.79-5.34,3.73-9.12-.2-14.63,0-29.26-.12-43.89a7,7,0,0,1,2.29-5.46c5.52-5.4,10.95-10.89,16.45-16.31,2.64-2.61,5.06-2.61,7.69,0q8.64,8.69,17.24,17.42c2.74,2.78,2.7,5.41-.05,8.15-2.48,2.47-5,4.91-7.51,7.34-2.7,2.6-5.33,2.54-8-.06C252.53,32.56,250,30.24,247.12,27.47Zm22.19,16.74a4.88,4.88,0,0,0-3.42-.8c-6.55,0-13.11,0-19.66,0-1.61,0-2.44-.27-2.41-2.19.1-6.73,0-13.46.05-20.19,0-.57-.29-1.42.53-1.58.36-.06.89.49,1.25.85,3.86,3.89,7.79,7.7,11.49,11.73,1.52,1.66,2.38,1.42,3.75-.05a93,93,0,0,1,6.73-6.59c1.49-1.32,1.56-2.17.09-3.62q-8.55-8.38-16.86-17c-1.22-1.27-1.88-1.07-3,0Q239.82,13,231.64,21A5,5,0,0,0,230,25c.06,14.63-.12,29.26.13,43.88.07,4.33-.57,7.9-4.32,10.44-1.05.71-1.28,1.42-.17,2.49,3.42,3.3,6.76,6.69,10.06,10.12,1,1.05,1.63.92,2.59-.08,3.05-3.17,6.09-6.36,9.34-9.31,1.75-1.6,1.43-2.45-.09-4s-3.69-2.42-3.68-5c0-4.93.06-9.87,0-14.8,0-1.62.66-2,2.09-2,2.78.06,5.56,0,8.35,0A3.51,3.51,0,0,0,257,56C261,52.09,265,48.29,269.31,44.21Z"/><path class="cls-1" d="M388.71,46.86c0-8-.09-16,.06-24,0-2.2-.66-2.72-2.72-2.63-3.5.16-7,.07-10.51,0s-4.88-2.67-3.26-5.65a9,9,0,0,1,1.49-1.89C377.3,9.18,380.88,5.65,384.38,2a6.15,6.15,0,0,1,4.73-2c12,.06,24.07,0,36.11,0,1.66,0,3.24,0,4,1.93a4.16,4.16,0,0,1-1,4.68C424.15,10.81,420,14.92,415.86,19a5.64,5.64,0,0,1-4.79,1.27c-1.54-.15-2.21.22-2.2,2q.11,24.51,0,49a3.47,3.47,0,0,0,1.19,2.83A35.08,35.08,0,0,1,412.94,77a4.73,4.73,0,0,1,0,6.77q-5.33,5.53-10.85,10.87a4.73,4.73,0,0,1-7-.16Q389.88,89.3,384.72,84c-2.18-2.25-2.37-5.08.11-7.07,3.42-2.73,4.14-6,4-10.12C388.5,60.16,388.71,53.5,388.71,46.86ZM374.93,16l.56,1.09c4.37,0,8.74.16,13.1-.06,2.55-.13,3.33.52,3.31,3.2-.13,15.89-.19,31.79,0,47.68.06,4.62-.24,8.7-4.5,11.46-1.15.74-.87,1.44,0,2.31,3.33,3.26,6.66,6.54,9.85,10,1.22,1.3,1.85,1,2.95-.1,3-3.13,6-6.23,9.15-9.13,1.73-1.56,1.52-2.42,0-3.94s-3.76-2.67-3.75-5.55q.13-26.67,0-53.33c0-2.1.74-2.59,2.67-2.54,1.65,0,3.58.74,4.94-.55,4.38-4.16,8.63-8.47,13.46-13.23h-37.4a2.28,2.28,0,0,0-1.67.72Q381.29,10,374.93,16Z"/><path class="cls-1" d="M276.28,48.69c0-8.43,0-16.87,0-25.3a6.21,6.21,0,0,1,1.95-4.77c5.47-5.44,10.88-11,16.34-16.41q4-4,8.12.07C308.51,8.1,314.33,14,320.2,19.77a5.83,5.83,0,0,1,1.9,4.52c-.08,4.31-.1,8.62,0,12.92a6.25,6.25,0,0,1-2.08,5c-7.31,7.15-14.57,14.37-21.84,21.57a9.13,9.13,0,0,0-1.65,1.76c-.54.94-.75,2.27.06,2.94s1.29-.63,1.82-1.14c2.08-2,4.06-4.06,6.13-6.06,2.4-2.32,4.89-2.38,7.34-.1,2.76,2.57,5.48,5.19,8.12,7.87,2.2,2.24,2.15,4.86-.1,7.09q-9.36,9.3-18.79,18.52c-2.28,2.22-4.86,2.2-7.13,0-5.41-5.37-10.75-10.82-16.14-16.22A5.71,5.71,0,0,1,276.26,74C276.31,65.56,276.28,57.13,276.28,48.69Zm3.2.05c0,8,0,16,0,24a4.17,4.17,0,0,0,1.15,3.39q7.88,7.72,15.56,15.65c1.09,1.12,1.72,1.07,2.78,0q9-9,18.21-18c1-1,1.07-1.55,0-2.52-2.58-2.37-5.1-4.8-7.53-7.32-1.11-1.14-1.81-1-2.83.08-2.86,3-5.81,5.86-8.75,8.76-.52.51-.88,1.33-2,.7-3.57-2-4.41-8.37-1.42-11.34,5.67-5.62,11-11.64,17.12-16.75,5.59-4.67,8.35-9.89,7.1-17.12a9.26,9.26,0,0,1,0-2.68,4,4,0,0,0-1.48-3.52c-5.76-5.67-11.49-11.36-17.14-17.14-1.31-1.34-2.08-1.37-3.41,0q-7.75,8-15.74,15.86a5,5,0,0,0-1.68,4C279.53,32.77,279.48,40.76,279.48,48.74Z"/><path class="cls-1" d="M193,62.46h-6.32c-4.5,0-5.87-2.09-4.05-6.32,3.51-8.15,7.07-16.28,10.61-24.41,1.53-3.54,3.18-7,4.58-10.61a4.5,4.5,0,0,1,4.89-3.24c4.31.13,8.62,0,12.93,0s5.57,2,4.14,6c-1.89,5.32-3.77,10.65-5.84,15.9-.85,2.17-.29,2.66,1.82,2.48a43.72,43.72,0,0,1,4.58,0c3,.06,4.57,2.11,3.65,5a9.71,9.71,0,0,1-1.45,2.56q-16.33,22.74-32.72,45.45a10.45,10.45,0,0,1-2,2.16,3.59,3.59,0,0,1-4,.33c-1.48-.72-1.65-2-1.51-3.38a12.29,12.29,0,0,1,.68-2.86C186.22,82,189.53,72.43,193,62.46Zm28.24-16.89c-3.93,0-7.16-.13-10.38,0-2.25.13-2.58-.52-1.81-2.54,2.53-6.61,4.9-13.28,7.39-19.9C217,21.67,217,21,215,21c-3.77.16-7.54.13-11.31,0a2.73,2.73,0,0,0-3,2c-3.72,8.74-7.53,17.44-11.31,26.15-1.41,3.27-2.83,6.53-4.37,10.07,3.63,0,6.86.11,10.07,0,2.1-.09,2.65.31,1.85,2.49q-5,13.5-9.57,27.1c-.46,1.34-1.37,2.66-.94,4.89Z"/><path class="cls-2" d="M148.47,19.29q0,27.2,0,54.38c0,2.2,1.8,3,3,4.21,2.58,2.73,2.64,2.67-.08,5.38s-5.65,5.52-8.37,8.38c-1.16,1.22-1.89,1.15-3,0q-4.63-4.89-9.49-9.56c-1.14-1.1-1.49-1.94,0-2.92,3.79-2.54,4.39-6.15,4.29-10.47-.26-11.48-.15-23,0-34.47a7,7,0,0,0-2.42-5.86c-3.3-3-6.35-6.19-9.6-9.41a5,5,0,0,0-.47,3.2c0,15.8.13,31.6-.12,47.4-.06,3.95.82,7,4,9.25,1.68,1.19,1.6,2.13.09,3.52-3.23,3-6.32,6.13-9.38,9.29-1.07,1.11-1.76,1.41-3,.09-3.12-3.35-6.36-6.59-9.65-9.77C103,80.8,103,80,104.26,79.16c3.72-2.57,4.37-6.14,4.3-10.48-.25-14.09-.07-28.18-.14-42.28a5.36,5.36,0,0,1,1.78-4.22Q119,13.64,127.64,5c1.22-1.24,2-1.37,3.22-.06,3.17,3.3,6.6,6.36,9.73,9.69,1.51,1.6,2.39,1.42,3.8-.09,3.13-3.33,6.49-6.46,9.68-9.74,1-1.08,1.72-1.14,2.82,0Q165,13,173.3,21.08a4.79,4.79,0,0,1,1.28,3.9c0,15.17.07,30.34-.08,45.51,0,3.12.69,5.43,3.1,7.5,2.77,2.38,2.63,2.54,0,5.19-2.78,2.8-5.6,5.58-8.33,8.43-1,1-1.66,1.39-2.83.18q-4.84-5-9.9-9.9c-1.14-1.09-1.13-2,.1-2.76,3.93-2.6,4.4-6.33,4.3-10.72-.26-11.75-.12-23.52,0-35.27a5.35,5.35,0,0,0-1.79-4.21c-3.37-3.32-6.57-6.8-9.84-10.21Z"/><path class="cls-2" d="M84.12,77.64c.82-1.2.5-2.21.5-3.15,0-15.81-.11-31.61.11-47.41.06-3.91-.68-7-4-9.28-1.61-1.12-1.67-2.11-.11-3.55C83.91,11.28,87,8.13,90,5c1.12-1.17,1.83-1.3,3,0,3.07,3.27,6.24,6.46,9.47,9.58,1.1,1.07,1.59,1.91.08,2.92C98.7,20,98.24,23.75,98.31,28.15c.23,15.52.13,31.06,0,46.59a6.56,6.56,0,0,0,2.35,5.61c1.82,1.57,4.52,3.33,4.72,5.23s-3.07,3.37-4.55,5.25A6.41,6.41,0,0,1,95,93.27c-5.12-.19-10.24-.11-15.36,0a4.42,4.42,0,0,1-3.53-1.46q-8-8.16-16.22-16.16a4.75,4.75,0,0,1-1.52-3.79c0-15.35,0-30.71.09-46.06,0-2.92-.65-5.07-2.86-7-2.92-2.58-2.81-2.73,0-5.54S61.13,7.78,63.79,5c1.08-1.14,1.78-1.42,3-.13,3.14,3.33,6.39,6.56,9.68,9.75,1.09,1.05,1.29,1.89,0,2.75C72.55,20,72,23.68,72.09,28.09c.26,11.67.13,23.35,0,35a5.78,5.78,0,0,0,2,4.7C77.52,71,80.75,74.3,84.12,77.64Z"/><path class="cls-2" d="M47.75,92,38.08,77.62c-4.25-6.33-8.47-12.67-12.73-19-.37-.54-.53-1.59-1.43-1.34a2,2,0,0,0-1.44,2.05c0,4.93-.13,9.87.05,14.8.07,2.16,2.22,3.19,3.64,4.42,1.86,1.61,1.7,2.59,0,4.16-3.1,2.86-6,5.9-8.93,9-1.13,1.2-1.86,1.25-3,0-3.14-3.34-6.36-6.59-9.61-9.81-1-1-1.17-1.71,0-2.52C8.5,76.79,9.13,73.15,9,68.71c-.26-14.53-.23-29.07,0-43.6.06-3.66-.76-6.45-3.71-8.52C3,15,3.14,13.44,5.35,11.87a4.45,4.45,0,0,0,.59-.56c2.67-2.65,4.91-6.39,8.13-7.67,3.43-1.35,7.8-.12,11.71-.49C30.42,2.72,34,3.93,37,7.62a121.51,121.51,0,0,0,9.72,9.67A4.57,4.57,0,0,1,48.38,21c-.14,3.94,1,8.33-.44,11.71s-5.25,5.71-8,8.54c-1.93,2-5.16,3.53-5.52,6s2.67,4.62,4.2,6.9c2.8,4.17,5.74,8.25,8.63,12.36a4.5,4.5,0,0,1,1.1,2.66c0,7.53,0,15.07,0,22.6ZM22,40.12l1,.8c3.21-3.48,6.35-7,9.63-10.42s3.38-3.4,0-6.73S25.76,17.07,22,13.36Z"/><path class="cls-2" d="M348.79,3.06c5.85,6,11.76,12.19,17.72,18.28,1,1,.67,1.6-.17,2.41-2.13,2.05-4.29,4.09-6.28,6.29-1.26,1.4-2,1.09-3.2-.11-4.64-4.76-9.36-9.43-14.06-14.14-.56-.56-1.15-1.09-1.92-1.82-.8,2.08-.36,4-.39,5.9-.05,3.77-.93,7.93.38,11.19s4.84,5.38,7.44,8c6,6,11.94,11.92,18,17.83a4.4,4.4,0,0,1,1.46,3.53c-.09,4.12-.09,8.26,0,12.38a4.4,4.4,0,0,1-1.5,3.53q-7.71,7.51-15.3,15.17c-1.17,1.18-1.88,1.47-3.21.1q-8.46-8.68-17.15-17.13c-1.42-1.39-1.78-2.31-.08-3.79a73.17,73.17,0,0,0,6.45-6.49c1.32-1.47,2.13-1.26,3.38.09,2.62,2.83,5.48,5.44,8.12,8.26,1.16,1.23,1.95,1.55,3.19.09,1.73-2,4.9-3.77,5.16-5.91.28-2.3-3.18-4-5-5.84q-10.83-11.07-21.85-22c-1.28-1.26-1.47-2.6-1.74-4.25-1.36-8.16,1.57-14.33,8-19.22,2.27-1.72,4.07-4,6.1-6.07S346.3,5.49,348.79,3.06Z"/><path class="cls-2" d="M269.31,44.21C265,48.29,261,52.09,257,56a3.51,3.51,0,0,1-2.72.84c-2.79,0-5.57,0-8.35,0-1.43,0-2.12.34-2.09,2,.08,4.93,0,9.87,0,14.8,0,2.58,2.23,3.57,3.68,5s1.84,2.36.09,4c-3.25,3-6.29,6.14-9.34,9.31-1,1-1.58,1.13-2.59.08-3.3-3.43-6.64-6.82-10.06-10.12-1.11-1.07-.88-1.78.17-2.49,3.75-2.54,4.39-6.11,4.32-10.44-.25-14.62-.07-29.25-.13-43.88a5,5,0,0,1,1.65-4q8.19-8,16.22-16.14c1.11-1.12,1.77-1.32,3,0q8.32,8.61,16.86,17c1.47,1.45,1.4,2.3-.09,3.62A93,93,0,0,0,260.89,32c-1.37,1.47-2.23,1.71-3.75.05-3.7-4-7.63-7.84-11.49-11.73-.36-.36-.89-.91-1.25-.85-.82.16-.53,1-.53,1.58,0,6.73,0,13.46-.05,20.19,0,1.92.8,2.21,2.41,2.19,6.55-.05,13.11,0,19.66,0A4.88,4.88,0,0,1,269.31,44.21Z"/><path class="cls-2" d="M374.93,16q6.35-6,12.67-12a2.28,2.28,0,0,1,1.67-.72h37.4c-4.83,4.76-9.08,9.07-13.46,13.23-1.36,1.29-3.29.59-4.94.55-1.93-.05-2.67.44-2.67,2.54q.12,26.66,0,53.33c0,2.88,2.17,4,3.75,5.55s1.77,2.38,0,3.94c-3.19,2.9-6.19,6-9.15,9.13-1.1,1.15-1.73,1.4-2.95.1-3.19-3.41-6.52-6.69-9.85-10-.89-.87-1.17-1.57,0-2.31,4.26-2.76,4.56-6.84,4.5-11.46-.21-15.89-.15-31.79,0-47.68,0-2.68-.76-3.33-3.31-3.2-4.36.22-8.73.06-13.1.06Z"/><path class="cls-2" d="M279.48,48.74c0-8,0-16,0-24a5,5,0,0,1,1.68-4q8-7.85,15.74-15.86c1.33-1.37,2.1-1.34,3.41,0,5.65,5.78,11.38,11.47,17.14,17.14a4,4,0,0,1,1.48,3.52,9.26,9.26,0,0,0,0,2.68c1.25,7.23-1.51,12.45-7.1,17.12-6.1,5.11-11.45,11.13-17.12,16.75-3,3-2.15,9.29,1.42,11.34,1.1.63,1.46-.19,2-.7C301,69.89,304,67,306.83,64c1-1.06,1.72-1.22,2.83-.08,2.43,2.52,4.95,5,7.53,7.32,1.05,1,1,1.55,0,2.52Q308,82.71,299,91.75c-1.06,1.06-1.69,1.11-2.78,0q-7.69-7.9-15.56-15.65a4.17,4.17,0,0,1-1.15-3.39C279.49,64.72,279.48,56.73,279.48,48.74Zm13-3.25.8.53c3.9-4.09,7.73-8.24,11.72-12.24,1.26-1.25,1-1.94-.09-3-3.18-3-6.28-6.15-9.41-9.22-.91-.89-1.83-1.75-3-2.89Z"/><path class="cls-2" d="M221.21,45.57,186.45,93.71c-.43-2.23.48-3.55.94-4.89Q192,75.23,197,61.72c.8-2.18.25-2.58-1.85-2.49-3.21.15-6.44,0-10.07,0,1.54-3.54,3-6.8,4.37-10.07,3.78-8.71,7.59-17.41,11.31-26.15a2.73,2.73,0,0,1,3-2c3.77.12,7.54.15,11.31,0,2-.08,1.95.63,1.39,2.13-2.49,6.62-4.86,13.29-7.39,19.9-.77,2-.44,2.67,1.81,2.54C214.05,45.44,217.28,45.57,221.21,45.57Z"/><path class="cls-1" d="M22,40.12V13.36c3.79,3.71,7.21,7.05,10.62,10.41s3.29,3.28,0,6.73-6.42,6.94-9.63,10.42ZM25.27,22V32.49c5.95-5.63,5.95-5.63.25-10.53C25.48,21.93,25.37,22,25.27,22Z"/><path class="cls-1" d="M292.5,45.49V18.66c1.19,1.14,2.11,2,3,2.89,3.13,3.07,6.23,6.19,9.41,9.22,1.12,1.07,1.35,1.76.09,3-4,4-7.82,8.15-11.72,12.24Zm3.9-18.55-.68.46v10l.59.43c1.28-1.44,2.49-3,3.88-4.3,1-.94.8-1.5-.06-2.36C298.81,29.81,297.64,28.34,296.4,26.94Z"/></g></g></svg>